[Header]
FileType HTR
DataType HTRS
FileVersion 1
NumSegments 64
NumFrames 4
DataFrameRate 30
EulerRotationOrder ZYX
CalibrationUnits mm
RotationUnits Degrees
GlobalAxisofGravity Y
BoneLengthAxis Y
ScaleFactor 1.0
[SegmentNames&Hierarchy]
Hips	GLOBAL
Spine	Hips
Spine1	Spine
Spine2	Spine1
Neck	Spine2
Head	Neck
LeftEye	Head
RightEye	Head
LeftShoulder	Spine2
LeftArm	LeftShoulder
LeftForeArm	LeftArm
LeftHand	LeftForeArm
LeftHandThumb1	LeftHand
LeftHandThumb2	LeftHandThumb1
LeftHandThumb3	LeftHandThumb2
LeftHandThumb4	LeftHandThumb3
LeftHandIndex1	LeftHand
LeftHandIndex2	LeftHandIndex1
LeftHandIndex3	LeftHandIndex2
LeftHandIndex4	LeftHandIndex3
LeftHandMiddle1	LeftHand
LeftHandMiddle2	LeftHandMiddle1
LeftHandMiddle3	LeftHandMiddle2
LeftHandMiddle4	LeftHandMiddle3
LeftHandRing1	LeftHand
LeftHandRing2	LeftHandRing1
LeftHandRing3	LeftHandRing2
LeftHandRing4	LeftHandRing3
LeftHandPinky1	LeftHand
LeftHandPinky2	LeftHandPinky1
LeftHandPinky3	LeftHandPinky2
LeftHandPinky4	LeftHandPinky3
RightShoulder	Spine2
RightArm	RightShoulder
RightForeArm	RightArm
RightHand	RightForeArm
RightHandPinky1	RightHand
RightHandPinky2	RightHandPinky1
RightHandPinky3	RightHandPinky2
RightHandPinky4	RightHandPinky3
RightHandRing1	RightHand
RightHandRing2	RightHandRing1
RightHandRing3	RightHandRing2
RightHandRing4	RightHandRing3
RightHandMiddle1	RightHand
RightHandMiddle2	RightHandMiddle1
RightHandMiddle3	RightHandMiddle2
RightHandMiddle4	RightHandMiddle3
RightHandIndex1	RightHand
RightHandIndex2	RightHandIndex1
RightHandIndex3	RightHandIndex2
RightHandIndex4	RightHandIndex3
RightHandThumb1	RightHand
RightHandThumb2	RightHandThumb1
RightHandThumb3	RightHandThumb2
RightHandThumb4	RightHandThumb3
LeftUpLeg	Hips
LeftLeg	LeftUpLeg
LeftFoot	LeftLeg
LeftToeBase	LeftFoot
RightUpLeg	Hips
RightLeg	RightUpLeg
RightFoot	RightLeg
RightToeBase	RightFoot
[BasePosition]
Hips	0	0	0	0	0	0	1
Spine	0	0	0	0	0	0	1
Spine1	0	0	0	0	0	0	1
Spine2	0	0	0	0	0	0	1
Neck	0	0	0	0	0	0	1
Head	0	0	0	0	0	0	1
LeftEye	0	0	0	0	0	0	1
RightEye	0	0	0	0	0	0	1
LeftShoulder	0	0	0	0	0	0	1
LeftArm	0	0	0	0	0	0	1
LeftForeArm	0	0	0	0	0	0	1
LeftHand	0	0	0	0	0	0	1
LeftHandThumb1	0	0	0	0	0	0	1
LeftHandThumb2	0	0	0	0	0	0	1
LeftHandThumb3	0	0	0	0	0	0	1
LeftHandThumb4	0	0	0	0	0	0	1
LeftHandIndex1	0	0	0	0	0	0	1
LeftHandIndex2	0	0	0	0	0	0	1
LeftHandIndex3	0	0	0	0	0	0	1
LeftHandIndex4	0	0	0	0	0	0	1
LeftHandMiddle1	0	0	0	0	0	0	1
LeftHandMiddle2	0	0	0	0	0	0	1
LeftHandMiddle3	0	0	0	0	0	0	1
LeftHandMiddle4	0	0	0	0	0	0	1
LeftHandRing1	0	0	0	0	0	0	1
LeftHandRing2	0	0	0	0	0	0	1
LeftHandRing3	0	0	0	0	0	0	1
LeftHandRing4	0	0	0	0	0	0	1
LeftHandPinky1	0	0	0	0	0	0	1
LeftHandPinky2	0	0	0	0	0	0	1
LeftHandPinky3	0	0	0	0	0	0	1
LeftHandPinky4	0	0	0	0	0	0	1
RightShoulder	0	0	0	0	0	0	1
RightArm	0	0	0	0	0	0	1
RightForeArm	0	0	0	0	0	0	1
RightHand	0	0	0	0	0	0	1
RightHandPinky1	0	0	0	0	0	0	1
RightHandPinky2	0	0	0	0	0	0	1
RightHandPinky3	0	0	0	0	0	0	1
RightHandPinky4	0	0	0	0	0	0	1
RightHandRing1	0	0	0	0	0	0	1
RightHandRing2	0	0	0	0	0	0	1
RightHandRing3	0	0	0	0	0	0	1
RightHandRing4	0	0	0	0	0	0	1
RightHandMiddle1	0	0	0	0	0	0	1
RightHandMiddle2	0	0	0	0	0	0	1
RightHandMiddle3	0	0	0	0	0	0	1
RightHandMiddle4	0	0	0	0	0	0	1
RightHandIndex1	0	0	0	0	0	0	1
RightHandIndex2	0	0	0	0	0	0	1
RightHandIndex3	0	0	0	0	0	0	1
RightHandIndex4	0	0	0	0	0	0	1
RightHandThumb1	0	0	0	0	0	0	1
RightHandThumb2	0	0	0	0	0	0	1
RightHandThumb3	0	0	0	0	0	0	1
RightHandThumb4	0	0	0	0	0	0	1
LeftUpLeg	0	0	0	0	0	0	1
LeftLeg	0	0	0	0	0	0	1
LeftFoot	0	0	0	0	0	0	1
LeftToeBase	0	0	0	0	0	0	1
RightUpLeg	0	0	0	0	0	0	1
RightLeg	0	0	0	0	0	0	1
RightFoot	0	0	0	0	0	0	1
RightToeBase	0	0	0	0	0	0	1
[Hips]
142	-4.059010983	1034.526123	21.65784645	-3.74933672	-5.305712223	-2.893938065	1.0
143	-4.150968552	1034.489258	21.75042152	-3.726441383	-5.331226826	-2.899334192	1.0
144	-4.237513065	1034.453491	21.84799957	-3.708524942	-5.353116035	-2.903116941	1.0
145	-4.321759701	1034.431396	21.95648003	-3.693995237	-5.370691776	-2.90598917	1.0
[Spine]
142	0	101.8159943	1.315000057	3.079551935	1.549857855	2.877877951	1.0
143	0	101.8159943	1.315000057	3.106590271	1.546328425	2.874627829	1.0
144	0	101.8159943	1.315000057	3.137613297	1.531895161	2.870016336	1.0
145	0	101.8159943	1.315000057	3.168831348	1.510587811	2.866554499	1.0
[Spine1]
142	0	100.8349991	-10.00800037	1.068915963	0.3784275949	1.596574664	1.0
143	0	100.8349991	-10.00800037	1.075890779	0.377091676	1.595647693	1.0
144	0	100.8349991	-10.00800037	1.084189892	0.3713791966	1.594386935	1.0
145	0	100.8349991	-10.00800037	1.092586517	0.3628609776	1.593425155	1.0
[Spine2]
142	0	91	-13.73399925	1.043543458	0.4011466503	1.600034595	1.0
143	0	91	-13.73399925	1.050520182	0.3998326063	1.599051476	1.0
144	0	91	-13.73399925	1.058824539	0.3941484392	1.597737789	1.0
145	0	91	-13.73399925	1.067231894	0.3856576383	1.596730471	1.0
[Neck]
142	0	166.7169952	-25.16200066	5.28993845	-0.196525678	0.5386881828	1.0
143	0	166.7169952	-25.16200066	5.322100163	-0.196994856	0.5422299504	1.0
144	0	166.7169952	-25.16200066	5.356552124	-0.1950599998	0.5492861867	1.0
145	0	166.7169952	-25.16200066	5.392695427	-0.1929700226	0.5564004779	1.0
[Head]
142	0	96.17900085	16.84999847	-7.790143967	1.26493609	-0.3156692684	1.0
143	0	96.17900085	16.84999847	-7.779785156	1.262935519	-0.3029687405	1.0
144	0	96.17900085	16.84999847	-7.770796776	1.26988852	-0.2861410975	1.0
145	0	96.17900085	16.84999847	-7.759572506	1.271774054	-0.2636157572	1.0
[LeftEye]
142	30.6760006	64.09500122	92.83599854	0	0	0	1.0
143	30.6760006	64.09500122	92.83599854	0	0	0	1.0
144	30.6760006	64.09500122	92.83599854	0	0	0	1.0
145	30.6760006	64.09500122	92.83599854	0	0	0	1.0
[RightEye]
142	-30.6760006	64.09500122	92.83499908	0	0	0	1.0
143	-30.6760006	64.09500122	92.83499908	0	0	0	1.0
144	-30.6760006	64.09500122	92.83499908	0	0	0	1.0
145	-30.6760006	64.09500122	92.83499908	0	0	0	1.0
[LeftShoulder]
142	45.70400238	109.4599991	-26.28000069	4.761678219	-16.15462685	-12.65190315	1.0
143	45.70400238	109.4599991	-26.28000069	4.766281128	-16.17045975	-12.67191505	1.0
144	45.70400238	109.4599991	-26.28000069	4.769705772	-16.18469238	-12.68588829	1.0
145	45.70400238	109.4599991	-26.28000069	4.771514893	-16.19504356	-12.69222164	1.0
[LeftArm]
142	105.923996	-5.24600029	-22.32099915	20.10354996	-3.142941236	-71.83312988	1.0
143	105.923996	-5.24600029	-22.32099915	20.09501266	-3.18077445	-71.77619934	1.0
144	105.923996	-5.24600029	-22.32099915	20.09091949	-3.217710733	-71.73286438	1.0
145	105.923996	-5.24600029	-22.32099915	20.0935688	-3.254639149	-71.71068573	1.0
[LeftForeArm]
142	278.414978	-0.0009999999311	0	5.691033948e-06	-1.4899472	-0.000190987892	1.0
143	278.414978	-0.0009999999311	0	5.882969845e-07	-1.49327147	-0.0002047419403	1.0
144	278.414978	-0.0009999999311	0	-3.881648354e-06	-1.49279213	-0.0002056118537	1.0
145	278.414978	-0.0009999999311	0	-4.615421403e-06	-1.491317391	-0.0001917146874	1.0
[LeftHand]
142	283.2879944	0	0	-32.18569946	-4.432430744	-4.628883362	1.0
143	283.2879944	0	0	-32.21176147	-4.439365387	-4.619018078	1.0
144	283.2879944	0	0	-32.25214767	-4.440578461	-4.587369442	1.0
145	283.2879944	0	0	-32.28954315	-4.431245804	-4.537399769	1.0
[LeftHandThumb1]
142	24.6609993	-15.75	26.8239994	-0.4889889657	2.201390743	4.818541527	1.0
143	24.6609993	-15.75	26.8239994	-0.4889889657	2.201390743	4.818541527	1.0
144	24.6609993	-15.75	26.8239994	-0.4889889657	2.201390743	4.818541527	1.0
145	24.6609993	-15.75	26.8239994	-0.4889889657	2.201390743	4.818541527	1.0
[LeftHandThumb2]
142	32.29800034	-18.64699936	18.64699936	19.88581276	19.96446037	23.26738167	1.0
143	32.29800034	-18.64699936	18.64699936	19.88581276	19.96446037	23.26738167	1.0
144	32.29800034	-18.64699936	18.64699936	19.88581276	19.96446037	23.26738167	1.0
145	32.29800034	-18.64699936	18.64699936	19.88581276	19.96446037	23.26738167	1.0
[LeftHandThumb3]
142	26.52600098	-15.31499958	15.31499958	-13.14535904	5.551738262	7.967928886	1.0
143	26.52600098	-15.31499958	15.31499958	-13.14535904	5.551738262	7.967928886	1.0
144	26.52600098	-15.31499958	15.31499958	-13.14535904	5.551738262	7.967928886	1.0
145	26.52600098	-15.31499958	15.31499958	-13.14535904	5.551738262	7.967928886	1.0
[LeftHandThumb4]
142	19.54599953	-11.28499985	11.28499985	0	0	0	1.0
143	19.54599953	-11.28499985	11.28499985	0	0	0	1.0
144	19.54599953	-11.28499985	11.28499985	0	0	0	1.0
145	19.54599953	-11.28499985	11.28499985	0	0	0	1.0
[LeftHandIndex1]
142	91.09299469	-5.170999527	22.60099792	0.1480516791	-0.9618676901	-7.594518185	1.0
143	91.09299469	-5.170999527	22.60099792	0.1480516791	-0.9618676901	-7.594518185	1.0
144	91.09299469	-5.170999527	22.60099792	0.1480516791	-0.9618676901	-7.594518185	1.0
145	91.09299469	-5.170999527	22.60099792	0.1480516791	-0.9618676901	-7.594518185	1.0
[LeftHandIndex2]
142	36.76399994	0	0	-0.2667043209	1.745171905	-17.37646866	1.0
143	36.76399994	0	0	-0.2667043209	1.745171905	-17.37646866	1.0
144	36.76399994	0	0	-0.2667043209	1.745171905	-17.37646866	1.0
145	36.76399994	0	0	-0.2667043209	1.745171905	-17.37646866	1.0
[LeftHandIndex3]
142	28.83100128	0	0	-0.05742863193	0.817338407	-8.038370132	1.0
143	28.83100128	0	0	-0.05742863193	0.817338407	-8.038370132	1.0
144	28.83100128	0	0	-0.05742863193	0.817338407	-8.038370132	1.0
145	28.83100128	0	0	-0.05742863193	0.817338407	-8.038370132	1.0
[LeftHandIndex4]
142	23.92700005	0	0	0	0	0	1.0
143	23.92700005	0	0	0	0	0	1.0
144	23.92700005	0	0	0	0	0	1.0
145	23.92700005	0	0	0	0	0	1.0
[LeftHandMiddle1]
142	95.33399963	0	0	-0.7942916155	2.538622379	-15.71737862	1.0
143	95.33399963	0	0	-0.7942916155	2.538622379	-15.71737862	1.0
144	95.33399963	0	0	-0.7942916155	2.538622379	-15.71737862	1.0
145	95.33399963	0	0	-0.7942916155	2.538622379	-15.71737862	1.0
[LeftHandMiddle2]
142	36.98199844	0	0	-0.267610997	1.748071074	-17.40625954	1.0
143	36.98199844	0	0	-0.267610997	1.748071074	-17.40625954	1.0
144	36.98199844	0	0	-0.267610997	1.748071074	-17.40625954	1.0
145	36.98199844	0	0	-0.267610997	1.748071074	-17.40625954	1.0
[LeftHandMiddle3]
142	29.50900078	0	0	-0.2992140949	1.84580946	-18.41413307	1.0
143	29.50900078	0	0	-0.2992140949	1.84580946	-18.41413307	1.0
144	29.50900078	0	0	-0.2992140949	1.84580946	-18.41413307	1.0
145	29.50900078	0	0	-0.2992140949	1.84580946	-18.41413307	1.0
[LeftHandMiddle4]
142	28.3390007	0	0	0	0	0	1.0
143	28.3390007	0	0	0	0	0	1.0
144	28.3390007	0	0	0	0	0	1.0
145	28.3390007	0	0	0	0	0	1.0
[LeftHandRing1]
142	91.04499817	-0.4390000105	-18.65100098	-1.184956431	3.436642885	-21.16632462	1.0
143	91.04499817	-0.4390000105	-18.65100098	-1.184956431	3.436642885	-21.16632462	1.0
144	91.04499817	-0.4390000105	-18.65100098	-1.184956431	3.436642885	-21.16632462	1.0
145	91.04499817	-0.4390000105	-18.65100098	-1.184956431	3.436642885	-21.16632462	1.0
[LeftHandRing2]
142	31.54000092	0	0	-0.3849357069	2.085560799	-20.91281319	1.0
143	31.54000092	0	0	-0.3849357069	2.085560799	-20.91281319	1.0
144	31.54000092	0	0	-0.3849357069	2.085560799	-20.91281319	1.0
145	31.54000092	0	0	-0.3849357069	2.085560799	-20.91281319	1.0
[LeftHandRing3]
142	29.37700081	0	0	-0.2818065584	1.792707562	-17.86576271	1.0
143	29.37700081	0	0	-0.2818065584	1.792707562	-17.86576271	1.0
144	29.37700081	0	0	-0.2818065584	1.792707562	-17.86576271	1.0
145	29.37700081	0	0	-0.2818065584	1.792707562	-17.86576271	1.0
[LeftHandRing4]
142	26.47500038	0	0	0	0	0	1.0
143	26.47500038	0	0	0	0	0	1.0
144	26.47500038	0	0	0	0	0	1.0
145	26.47500038	0	0	0	0	0	1.0
[LeftHandPinky1]
142	80.77799988	-4.887000084	-38.06099701	-1.708467126	5.355370045	-27.1653862	1.0
143	80.77799988	-4.887000084	-38.06099701	-1.708467126	5.355370045	-27.1653862	1.0
144	80.77799988	-4.887000084	-38.06099701	-1.708467126	5.355370045	-27.1653862	1.0
145	80.77799988	-4.887000084	-38.06099701	-1.708467126	5.355370045	-27.1653862	1.0
[LeftHandPinky2]
142	36	0	0	-0.2676221728	1.748113751	-17.40663528	1.0
143	36	0	0	-0.2676221728	1.748113751	-17.40663528	1.0
144	36	0	0	-0.2676221728	1.748113751	-17.40663528	1.0
145	36	0	0	-0.2676221728	1.748113751	-17.40663528	1.0
[LeftHandPinky3]
142	21.14200211	0	0	-0.2408525199	1.660349369	-16.50663185	1.0
143	21.14200211	0	0	-0.2408525199	1.660349369	-16.50663185	1.0
144	21.14200211	0	0	-0.2408525199	1.660349369	-16.50663185	1.0
145	21.14200211	0	0	-0.2408525199	1.660349369	-16.50663185	1.0
[LeftHandPinky4]
142	19.75699997	0	0	0	0	0	1.0
143	19.75699997	0	0	0	0	0	1.0
144	19.75699997	0	0	0	0	0	1.0
145	19.75699997	0	0	0	0	0	1.0
[RightShoulder]
142	-45.70000076	109.4620056	-26.28000069	5.189704418	14.32956123	15.66057873	1.0
143	-45.70000076	109.4620056	-26.28000069	5.195341587	14.34079456	15.68891335	1.0
144	-45.70000076	109.4620056	-26.28000069	5.200430393	14.34983063	15.71506119	1.0
145	-45.70000076	109.4620056	-26.28000069	5.204199791	14.364645	15.73000813	1.0
[RightArm]
142	-105.9280014	-5.248000145	-22.32099915	30.5587635	1.900249839	62.32752609	1.0
143	-105.9280014	-5.248000145	-22.32099915	30.55061913	1.893140197	62.33589554	1.0
144	-105.9280014	-5.248000145	-22.32099915	30.53184128	1.901043892	62.34104538	1.0
145	-105.9280014	-5.248000145	-22.32099915	30.50071716	1.910645604	62.34920502	1.0
[RightForeArm]
142	-278.414978	0	0	-1.712701533e-06	6.554526806	-9.486559975e-06	1.0
143	-278.414978	0	0	1.131679369e-06	6.558717251	-1.280412198e-05	1.0
144	-278.414978	0	0	-4.67208281e-07	6.565393448	-1.356456232e-05	1.0
145	-278.414978	0	0	-1.344510679e-06	6.574990273	-3.821460126e-08	1.0
[RightHand]
142	-283.2879944	0	0.0009999999311	-20.0405426	1.631469131	6.215788841	1.0
143	-283.2879944	0	0.0009999999311	-20.04490089	1.647054434	6.220065117	1.0
144	-283.2879944	0	0.0009999999311	-20.04276657	1.655449629	6.208950996	1.0
145	-283.2879944	0	0.0009999999311	-20.03332138	1.657716274	6.190618515	1.0
[RightHandPinky1]
142	-80.76699829	-4.885000229	-38.06000137	-1.507175922	-4.696118355	26.50587463	1.0
143	-80.76699829	-4.885000229	-38.06000137	-1.507175922	-4.696118355	26.50587463	1.0
144	-80.76699829	-4.885000229	-38.06000137	-1.507175922	-4.696118355	26.50587463	1.0
145	-80.76699829	-4.885000229	-38.06000137	-1.507175922	-4.696118355	26.50587463	1.0
[RightHandPinky2]
142	-36	0	0.0009999999311	-0.2127676606	-1.388874292	17.43785858	1.0
143	-36	0	0.0009999999311	-0.2127676606	-1.388874292	17.43785858	1.0
144	-36	0	0.0009999999311	-0.2127676606	-1.388874292	17.43785858	1.0
145	-36	0	0.0009999999311	-0.2127676606	-1.388874292	17.43785858	1.0
[RightHandPinky3]
142	-21.14200211	0	0	-0.1919144988	-1.32059598	16.53641129	1.0
143	-21.14200211	0	0	-0.1919144988	-1.32059598	16.53641129	1.0
144	-21.14200211	0	0	-0.1919144988	-1.32059598	16.53641129	1.0
145	-21.14200211	0	0	-0.1919144988	-1.32059598	16.53641129	1.0
[RightHandPinky4]
142	-19.75699997	0	0	0	0	0	1.0
143	-19.75699997	0	0	0	0	0	1.0
144	-19.75699997	0	0	0	0	0	1.0
145	-19.75699997	0	0	0	0	0	1.0
[RightHandRing1]
142	-91.03599548	-0.4390000105	-18.65100098	-1.045235753	-2.883111477	20.47788429	1.0
143	-91.03599548	-0.4390000105	-18.65100098	-1.045235753	-2.883111477	20.47788429	1.0
144	-91.03599548	-0.4390000105	-18.65100098	-1.045235753	-2.883111477	20.47788429	1.0
145	-91.03599548	-0.4390000105	-18.65100098	-1.045235753	-2.883111477	20.47788429	1.0
[RightHandRing2]
142	-31.54000092	0	0	-0.3066971898	-1.658752441	20.94926834	1.0
143	-31.54000092	0	0	-0.3066971898	-1.658752441	20.94926834	1.0
144	-31.54000092	0	0	-0.3066971898	-1.658752441	20.94926834	1.0
145	-31.54000092	0	0	-0.3066971898	-1.658752441	20.94926834	1.0
[RightHandRing3]
142	-29.37700081	0	0	-0.2245407403	-1.425854325	17.89771652	1.0
143	-29.37700081	0	0	-0.2245407403	-1.425854325	17.89771652	1.0
144	-29.37700081	0	0	-0.2245407403	-1.425854325	17.89771652	1.0
145	-29.37700081	0	0	-0.2245407403	-1.425854325	17.89771652	1.0
[RightHandRing4]
142	-26.47500038	0	0	0	0	0	1.0
143	-26.47500038	0	0	0	0	0	1.0
144	-26.47500038	0	0	0	0	0	1.0
145	-26.47500038	0	0	0	0	0	1.0
[RightHandMiddle1]
142	-95.32500458	0	0	-0.7017197609	-2.087752104	15.0152874	1.0
143	-95.32500458	0	0	-0.7017197609	-2.087752104	15.0152874	1.0
144	-95.32500458	0	0	-0.7017197609	-2.087752104	15.0152874	1.0
145	-95.32500458	0	0	-0.7017197609	-2.087752104	15.0152874	1.0
[RightHandMiddle2]
142	-36.98199844	0	0	-0.213228479	-1.390354872	17.43750381	1.0
143	-36.98199844	0	0	-0.213228479	-1.390354872	17.43750381	1.0
144	-36.98199844	0	0	-0.213228479	-1.390354872	17.43750381	1.0
145	-36.98199844	0	0	-0.213228479	-1.390354872	17.43750381	1.0
[RightHandMiddle3]
142	-29.50900078	0	0	-0.2384106964	-1.470119596	18.44692802	1.0
143	-29.50900078	0	0	-0.2384106964	-1.470119596	18.44692802	1.0
144	-29.50900078	0	0	-0.2384106964	-1.470119596	18.44692802	1.0
145	-29.50900078	0	0	-0.2384106964	-1.470119596	18.44692802	1.0
[RightHandMiddle4]
142	-28.3390007	0	0.0009999999311	0	0	0	1.0
143	-28.3390007	0	0.0009999999311	0	0	0	1.0
144	-28.3390007	0	0.0009999999311	0	0	0	1.0
145	-28.3390007	0	0.0009999999311	0	0	0	1.0
[RightHandIndex1]
142	-91.08300018	-5.167999744	22.60099792	0.1884763837	1.25192976	6.825599194	1.0
143	-91.08300018	-5.167999744	22.60099792	0.1884763837	1.25192976	6.825599194	1.0
144	-91.08300018	-5.167999744	22.60099792	0.1884763837	1.25192976	6.825599194	1.0
145	-91.08300018	-5.167999744	22.60099792	0.1884763837	1.25192976	6.825599194	1.0
[RightHandIndex2]
142	-36.76399994	0	0	-0.2125098109	-1.388050556	17.40767097	1.0
143	-36.76399994	0	0	-0.2125098109	-1.388050556	17.40767097	1.0
144	-36.76399994	0	0	-0.2125098109	-1.388050556	17.40767097	1.0
145	-36.76399994	0	0	-0.2125098109	-1.388050556	17.40767097	1.0
[RightHandIndex3]
142	-28.83100128	0	0	-0.04576345533	-0.650116384	8.053516388	1.0
143	-28.83100128	0	0	-0.04576345533	-0.650116384	8.053516388	1.0
144	-28.83100128	0	0	-0.04576345533	-0.650116384	8.053516388	1.0
145	-28.83100128	0	0	-0.04576345533	-0.650116384	8.053516388	1.0
[RightHandIndex4]
142	-23.92700005	0	0	0	0	0	1.0
143	-23.92700005	0	0	0	0	0	1.0
144	-23.92700005	0	0	0	0	0	1.0
145	-23.92700005	0	0	0	0	0	1.0
[RightHandThumb1]
142	-24.64799881	-15.72700024	26.82600021	-1.658462524	-0.2891407609	-4.221328735	1.0
143	-24.64799881	-15.72700024	26.82600021	-1.658462524	-0.2891407609	-4.221328735	1.0
144	-24.64799881	-15.72700024	26.82600021	-1.658462524	-0.2891407609	-4.221328735	1.0
145	-24.64799881	-15.72700024	26.82600021	-1.658462524	-0.2891407609	-4.221328735	1.0
[RightHandThumb2]
142	-32.29800034	-18.64699936	18.64699936	22.25259209	-23.88967514	-24.282444	1.0
143	-32.29800034	-18.64699936	18.64699936	22.25259209	-23.88967514	-24.282444	1.0
144	-32.29800034	-18.64699936	18.64699936	22.25259209	-23.88967514	-24.282444	1.0
145	-32.29800034	-18.64699936	18.64699936	22.25259209	-23.88967514	-24.282444	1.0
[RightHandThumb3]
142	-26.52600098	-15.31399918	15.31399918	-14.47830296	-6.743862152	-11.36570263	1.0
143	-26.52600098	-15.31399918	15.31399918	-14.47830296	-6.743862152	-11.36570263	1.0
144	-26.52600098	-15.31399918	15.31399918	-14.47830296	-6.743862152	-11.36570263	1.0
145	-26.52600098	-15.31399918	15.31399918	-14.47830296	-6.743862152	-11.36570263	1.0
[RightHandThumb4]
142	-19.54599953	-11.28499985	11.28499985	0	0	0	1.0
143	-19.54599953	-11.28499985	11.28499985	0	0	0	1.0
144	-19.54599953	-11.28499985	11.28499985	0	0	0	1.0
145	-19.54599953	-11.28499985	11.28499985	0	0	0	1.0
[LeftUpLeg]
142	82.07800293	-67.51699829	-15.99599934	-7.092579842	16.07565689	7.608118057	1.0
143	82.07800293	-67.51699829	-15.99599934	-7.122487068	16.08905983	7.618201733	1.0
144	82.07800293	-67.51699829	-15.99599934	-7.150135517	16.10320854	7.628145218	1.0
145	82.07800293	-67.51699829	-15.99599934	-7.168697357	16.11774254	7.637597084	1.0
[LeftLeg]
142	0	-443.7049866	2.845999956	11.34389782	1.106889486	4.623001099	1.0
143	0	-443.7049866	2.845999956	11.38011265	1.115018487	4.624459743	1.0
144	0	-443.7049866	2.845999956	11.42078972	1.114692688	4.622297287	1.0
145	0	-443.7049866	2.845999956	11.44958305	1.114323258	4.619158745	1.0
[LeftFoot]
142	0	-444.2789917	-29.8219986	1.439235687	0.7058619261	-7.379444122	1.0
143	0	-444.2789917	-29.8219986	1.418368459	0.7052833438	-7.38313961	1.0
144	0	-444.2789917	-29.8219986	1.398844004	0.7041416764	-7.380815506	1.0
145	0	-444.2789917	-29.8219986	1.385568738	0.7033239603	-7.378545284	1.0
[LeftToeBase]
142	0	-87.28699493	107.1060028	-4.888161659	-7.398624348e-06	-2.124696948e-06	1.0
143	0	-87.28699493	107.1060028	-4.893408775	-6.875184681e-06	-3.118903464e-07	1.0
144	0	-87.28699493	107.1060028	-4.898574352	-9.71161262e-06	1.285251074e-06	1.0
145	0	-87.28699493	107.1060028	-4.90148592	-1.291027638e-05	1.459841542e-06	1.0
[RightUpLeg]
142	-82.07800293	-67.51699829	-15.99599934	0.8632100224	-10.6910429	3.032886505	1.0
143	-82.07800293	-67.51699829	-15.99599934	0.8296517134	-10.68674374	3.045885801	1.0
144	-82.07800293	-67.51699829	-15.99599934	0.8014025688	-10.68356133	3.056504965	1.0
145	-82.07800293	-67.51699829	-15.99599934	0.7858322263	-10.68169308	3.065090656	1.0
[RightLeg]
142	0	-443.7049866	2.861999989	7.935821056	-9.257390976	-4.561765671	1.0
143	0	-443.7049866	2.861999989	7.965091705	-9.256335258	-4.56469059	1.0
144	0	-443.7049866	2.861999989	7.995398998	-9.254528046	-4.56993866	1.0
145	0	-443.7049866	2.861999989	8.009638786	-9.25363636	-4.573250771	1.0
[RightFoot]
142	0	-444.2770081	-29.83799934	-4.321439743	-1.317673564	3.23909831	1.0
143	0	-444.2770081	-29.83799934	-4.33951664	-1.300746918	3.235949516	1.0
144	0	-444.2770081	-29.83799934	-4.358897209	-1.281795621	3.234964848	1.0
145	0	-444.2770081	-29.83799934	-4.371739864	-1.260927916	3.233706474	1.0
[RightToeBase]
142	0	-87.28699493	107.1060028	-6.911698341	2.737908062e-06	3.635287982e-08	1.0
143	0	-87.28699493	107.1060028	-6.901945114	9.962750482e-06	-5.507450282e-07	1.0
144	0	-87.28699493	107.1060028	-6.90116787	1.730760778e-05	-9.700285091e-07	1.0
145	0	-87.28699493	107.1060028	-6.909104824	8.533905202e-06	-4.281485246e-07	1.0
[EndOfFile]
